<svg fill="#000000" xmlns="http://www.w3.org/2000/svg" viewBox="0 0 50 50" width="50px" height="50px"><path d="M 16 9 C 7.1752886 9 0 16.175289 0 25 C 0 33.824711 7.1752886 41 16 41 C 19.336732 41 22.435573 39.969764 25.001953 38.216797 C 27.5674 39.966629 30.664456 41 34 41 C 42.82448 41 50 33.82448 50 25 C 50 16.17552 42.82448 9 34 9 C 30.664456 9 27.5674 10.033371 25.001953 11.783203 C 22.435573 10.030236 19.336732 9 16 9 z M 16 11 C 23.743831 11 30 17.256169 30 25 C 30 32.743831 23.743831 39 16 39 C 8.2561689 39 2 32.743831 2 25 C 2 17.256169 8.2561689 11 16 11 z M 34 11 C 41.74352 11 48 17.25648 48 25 C 48 32.74352 41.74352 39 34 39 C 31.297198 39 28.783555 38.233063 26.646484 36.910156 C 29.922642 33.978581 32 29.733555 32 25 C 32 20.266445 29.922642 16.021419 26.646484 13.089844 C 28.783555 11.766937 31.297198 11 34 11 z M 13 12 A 1 1 0 0 0 12 13 A 1 1 0 0 0 13 14 A 1 1 0 0 0 14 13 A 1 1 0 0 0 13 12 z M 19 12 A 1 1 0 0 0 18 13 A 1 1 0 0 0 19 14 A 1 1 0 0 0 20 13 A 1 1 0 0 0 19 12 z M 10 15 A 1 1 0 0 0 9 16 A 1 1 0 0 0 10 17 A 1 1 0 0 0 11 16 A 1 1 0 0 0 10 15 z M 16 15 A 1 1 0 0 0 15 16 A 1 1 0 0 0 16 17 A 1 1 0 0 0 17 16 A 1 1 0 0 0 16 15 z M 22 15 A 1 1 0 0 0 21 16 A 1 1 0 0 0 22 17 A 1 1 0 0 0 23 16 A 1 1 0 0 0 22 15 z M 7 18 A 1 1 0 0 0 6 19 A 1 1 0 0 0 7 20 A 1 1 0 0 0 8 19 A 1 1 0 0 0 7 18 z M 13 18 A 1 1 0 0 0 12 19 A 1 1 0 0 0 13 20 A 1 1 0 0 0 14 19 A 1 1 0 0 0 13 18 z M 19 18 A 1 1 0 0 0 18 19 A 1 1 0 0 0 19 20 A 1 1 0 0 0 20 19 A 1 1 0 0 0 19 18 z M 25 18 A 1 1 0 0 0 24 19 A 1 1 0 0 0 25 20 A 1 1 0 0 0 26 19 A 1 1 0 0 0 25 18 z M 4 21 A 1 1 0 0 0 3 22 A 1 1 0 0 0 4 23 A 1 1 0 0 0 5 22 A 1 1 0 0 0 4 21 z M 10 21 A 1 1 0 0 0 9 22 A 1 1 0 0 0 10 23 A 1 1 0 0 0 11 22 A 1 1 0 0 0 10 21 z M 16 21 A 1 1 0 0 0 15 22 A 1 1 0 0 0 16 23 A 1 1 0 0 0 17 22 A 1 1 0 0 0 16 21 z M 22 21 A 1 1 0 0 0 21 22 A 1 1 0 0 0 22 23 A 1 1 0 0 0 23 22 A 1 1 0 0 0 22 21 z M 28 21 A 1 1 0 0 0 27 22 A 1 1 0 0 0 28 23 A 1 1 0 0 0 29 22 A 1 1 0 0 0 28 21 z M 7 24 A 1 1 0 0 0 6 25 A 1 1 0 0 0 7 26 A 1 1 0 0 0 8 25 A 1 1 0 0 0 7 24 z M 13 24 A 1 1 0 0 0 12 25 A 1 1 0 0 0 13 26 A 1 1 0 0 0 14 25 A 1 1 0 0 0 13 24 z M 19 24 A 1 1 0 0 0 18 25 A 1 1 0 0 0 19 26 A 1 1 0 0 0 20 25 A 1 1 0 0 0 19 24 z M 25 24 A 1 1 0 0 0 24 25 A 1 1 0 0 0 25 26 A 1 1 0 0 0 26 25 A 1 1 0 0 0 25 24 z M 4 27 A 1 1 0 0 0 3 28 A 1 1 0 0 0 4 29 A 1 1 0 0 0 5 28 A 1 1 0 0 0 4 27 z M 10 27 A 1 1 0 0 0 9 28 A 1 1 0 0 0 10 29 A 1 1 0 0 0 11 28 A 1 1 0 0 0 10 27 z M 16 27 A 1 1 0 0 0 15 28 A 1 1 0 0 0 16 29 A 1 1 0 0 0 17 28 A 1 1 0 0 0 16 27 z M 22 27 A 1 1 0 0 0 21 28 A 1 1 0 0 0 22 29 A 1 1 0 0 0 23 28 A 1 1 0 0 0 22 27 z M 28 27 A 1 1 0 0 0 27 28 A 1 1 0 0 0 28 29 A 1 1 0 0 0 29 28 A 1 1 0 0 0 28 27 z M 7 30 A 1 1 0 0 0 6 31 A 1 1 0 0 0 7 32 A 1 1 0 0 0 8 31 A 1 1 0 0 0 7 30 z M 13 30 A 1 1 0 0 0 12 31 A 1 1 0 0 0 13 32 A 1 1 0 0 0 14 31 A 1 1 0 0 0 13 30 z M 19 30 A 1 1 0 0 0 18 31 A 1 1 0 0 0 19 32 A 1 1 0 0 0 20 31 A 1 1 0 0 0 19 30 z M 25 30 A 1 1 0 0 0 24 31 A 1 1 0 0 0 25 32 A 1 1 0 0 0 26 31 A 1 1 0 0 0 25 30 z M 10 33 A 1 1 0 0 0 9 34 A 1 1 0 0 0 10 35 A 1 1 0 0 0 11 34 A 1 1 0 0 0 10 33 z M 16 33 A 1 1 0 0 0 15 34 A 1 1 0 0 0 16 35 A 1 1 0 0 0 17 34 A 1 1 0 0 0 16 33 z M 22 33 A 1 1 0 0 0 21 34 A 1 1 0 0 0 22 35 A 1 1 0 0 0 23 34 A 1 1 0 0 0 22 33 z M 13 36 A 1 1 0 0 0 12 37 A 1 1 0 0 0 13 38 A 1 1 0 0 0 14 37 A 1 1 0 0 0 13 36 z M 19 36 A 1 1 0 0 0 18 37 A 1 1 0 0 0 19 38 A 1 1 0 0 0 20 37 A 1 1 0 0 0 19 36 z"/></svg>